<?xml version="1.0" encoding="UTF-8"?>
<svg viewBox="0 0 744.09447 1052.362179" xmlns="http://www.w3.org/2000/svg">
 <g transform="matrix(.71226 0 0 .71226 580.14 -32.133)" stroke="#000">
  <path d="m-401.16 856.25 24.354-2.4768-15.272 19.049" fill="none" stroke-linecap="round" stroke-linejoin="round" stroke-width="3"/>
  <path d="m-414.71 842 21.65-11.426-7.0174 23.385" fill="none" stroke-linecap="round" stroke-linejoin="round" stroke-width="3"/>
  <path d="m-434.56 827.84 21.65-11.426-7.0174 23.385" fill="none" stroke-linecap="round" stroke-linejoin="round" stroke-width="3"/>
  <path d="m-396.14 876.61 25.466 9.2678-10.305 20.66s12.835-5.6837 11.644 3.7394-9.4308 12.225-1.8256 11.398-8.6766 7.0192-8.6766 7.0192-6.7735 1.0933-5.8995-7.3422 5.9066-15.535 5.9066-15.535" fill="none" stroke-linecap="round" stroke-linejoin="round" stroke-width="3"/>
  <path d="m-491.18 904.49-23.464 13.559 13.744 18.551s-13.629-3.3629-10.815 5.7091 11.415 10.396 3.7817 10.907 9.766 5.4018 9.766 5.4018 6.8604-0.10241 4.5315-8.257-8.5205-14.27-8.5205-14.27" fill="none" stroke-linecap="round" stroke-linejoin="round" stroke-width="3"/>
  <path d="m-506.63 886.15-25.212 9.9366 10.847 20.381s-12.981-5.343-11.541 4.0454 9.7502 11.971 2.1258 11.346 8.8589 6.7878 8.8589 6.7878 6.8 0.91413 5.7037-7.4953-6.3146-15.374-6.3146-15.374" fill="none" stroke-linecap="round" stroke-linejoin="round" stroke-width="3"/>
  <path d="m-517.13 859.96-26.186-6.9788-3.3773 22.839s-7.2705-12.008-11.688-3.5994 0.73485 15.422-5.0281 10.391 3.0962 10.722 3.0962 10.722 4.9281 4.7739 9.0403-2.643 4.0501-16.119 4.0501-16.119" fill="none" stroke-linecap="round" stroke-linejoin="round" stroke-width="3"/>
  <path d="m-512.51 882.33-22.942-4.8244-2.753 22.855s-6.4572-11.299-10.244-2.6325 0.77589 15.194-4.3034 10.676 2.7985 10.359 2.7985 10.359 4.3476 4.3303 7.8765-3.3312 3.3991-16.263 3.3991-16.263" fill="none" stroke-linecap="round" stroke-linejoin="round" stroke-width="3"/>
  <path d="m-500.67 913.99c-26.242-19.34-28.239-52.358-4.4569-73.699s64.382-22.965 90.624-3.6245c25.627 18.887 28.276 50.728 6.012 72.251l-45.966-8.1373-46.213 13.21z" fill="#fff" stroke-linecap="round" stroke-linejoin="round" stroke-width="4"/>
  <path transform="matrix(.91955 .078244 -.062079 .72958 -670.47 467.72)" d="m334.29 579.51a54.286 41.429 0 1 1 -108.57 0 54.286 41.429 0 1 1 108.57 0z" fill="#fefdfe" stroke-linecap="round" stroke-linejoin="round" stroke-width="4.866"/>
  <path transform="matrix(1.3822 .67275 -.67743 1.3919 -856.1 -109.88)" d="m522.11 468.25a12.249 13.014 0 1 1 -24.498 0 12.249 13.014 0 1 1 24.498 0z" fill="#fefd41" stroke-linecap="round" stroke-linejoin="round" stroke-width="2.593"/>
  <path transform="matrix(1.2262 .92719 -.93364 1.2347 -615.21 -166.03)" d="m522.11 468.25a12.249 13.014 0 1 1 -24.498 0 12.249 13.014 0 1 1 24.498 0z" fill="#fefd41" stroke-linecap="round" stroke-linejoin="round" stroke-width="2.593"/>
  <path transform="matrix(.53989 0 0 .76994 -665.18 453.43)" d="m376.65 549.39a5.3589 5.3589 0 1 1 -10.718 0 5.3589 5.3589 0 1 1 10.718 0z" stroke-linecap="round" stroke-linejoin="round" stroke-width="2.593"/>
  <path transform="matrix(.53989 0 0 .76994 -621.54 451.14)" d="m376.65 549.39a5.3589 5.3589 0 1 1 -10.718 0 5.3589 5.3589 0 1 1 10.718 0z" stroke-linecap="round" stroke-linejoin="round" stroke-width="2.593"/>
  <path d="m-480.91 924.18c13.485 6.2163 60.938-6.2643 71.962-15.907" fill="none" stroke-linecap="round" stroke-linejoin="round" stroke-width="3"/>
  <path d="m-467.5 926.23 3.4551 7.3348 3.0232-7.7662" fill="none" stroke-linecap="round" stroke-linejoin="round" stroke-width="2.4513"/>
  <path d="m-457.99 926.05 3.4551 9.9519 3.0232-10.537" fill="none" stroke-linecap="round" stroke-linejoin="round" stroke-width="2.8553"/>
  <path d="m-423.93 915.85 3.4551 7.8582 3.0232-8.3204" fill="none" stroke-linecap="round" stroke-linejoin="round" stroke-width="2.5372"/>
  <path d="m-434.04 919.99 3.4551 7.8582 3.0232-8.3204" fill="none" stroke-linecap="round" stroke-linejoin="round" stroke-width="2.5372"/>
  <path d="m-442.49 921.83 3.4551 9.9519 3.0232-10.537" fill="none" stroke-linecap="round" stroke-linejoin="round" stroke-width="2.8553"/>
  <path d="m-449.54 923.52 3.4551 7.8582 3.0232-8.3204" fill="none" stroke-linecap="round" stroke-linejoin="round" stroke-width="2.5372"/>
  <path d="m-483.35 917.89c0.59537 1.6574 2.4878 6.7142-0.94544 7.7148" fill="none" stroke-linecap="round" stroke-linejoin="round" stroke-width="2.8983"/>
  <path d="m-464.38 821.16 5.1448-421.44" fill="none" stroke-linecap="round" stroke-linejoin="round" stroke-width="3"/>
  <path d="m-468.6 560.88z" fill="none"/>
 </g>
 <g transform="matrix(.71226 0 0 .71226 41.617 -10.876)" fill="none" stroke="#000">
  <path d="m498.75 776.61-201.89-393.23 330.62 359.46" stroke-linecap="round" stroke-width="3.7"/>
  <path d="m712.6 642.25-414.33-258.87 453.02 73.159" stroke-linecap="round" stroke-width="3.7"/>
  <path d="m749.88 335.55-452.32 47.835 429.1-185.01" stroke-linecap="round" stroke-width="3.7"/>
  <path d="m652.1 37.986-352.43 343.99 177.27-346.8" stroke-linecap="round" stroke-width="3.7"/>
  <path d="m328.51 32.359-29.545 351.02-72.455-351.73" stroke-linecap="round" stroke-width="3.7"/>
  <path d="m104.81 41.504 194.86 339.77-293.34-232.84" stroke-linecap="round" stroke-width="3.7"/>
  <path d="m-26.731 271.53 327.1 109.74-347.5 16.883" stroke-linecap="round" stroke-width="3.7"/>
  <path d="m-30.248 512.11 328.51-131.55-289.12 220.18" stroke-linecap="round" stroke-width="3.7"/>
  <path d="m294.79 384.74-127.42 256.15" stroke-linecap="round" stroke-width="3.6035"/>
  <path d="m264.5 447.39 60.497-6.3311 15.476-9.8483 11.255-14.069 8.4414-23.917v-16.883l-6.3311-18.29-14.069-16.179-15.476-8.4414-21.104-2.8138-16.179-2.1104-15.476 5.6276-14.772 12.662-16.883 14.772-0.70345 21.807 9.1449 14.772 7.0345 13.366 9.1449 35.876z" stroke-width="3.6"/>
  <path d="m230.03 355.95 10.552-20.4 19.697-21.104 23.214-0.70346 21.104-3.5172 36.579-9.1449 16.179 23.917 14.069 25.324 11.959 23.214-2.8138 23.214-9.1448 32.359-14.772 18.993-23.214 8.4414-77.38 4.2207-13.366-37.986-9.8483-15.476-7.0345-22.51 4.2207-28.841z" stroke-width="3.6"/>
  <path d="m257.46 366.5-1.4069 16.883 3.5172 11.255 5.6276 9.8483 11.959 13.366 40.097 6.3311 7.0345-10.552 9.1449-7.738 14.069-16.179-0.70345-14.069-9.1449-10.552-10.552-12.662-9.1448-7.738-15.476-2.8138-12.662 0.70345-9.8483 3.5172-14.772 9.8483-7.738 10.552z" stroke-width="3.6"/>
  <path d="m267.31 370.02-0.70345 13.366 1.4069 8.969 4.3966 7.5621 11.783 5.8035 24.972 2.4621 7.5621-3.1655 5.6276-6.3311 8.969-10.376 0.52759-8.4414-4.3966-10.2-6.8586-7.9138s-5.9793-9.4966-6.8586-8.969-12.486-1.231-12.486-1.231l-8.969 1.0552-8.2656 0.87932-9.4966 8.0897-7.5621 9.3207 0.35173 0.52759" stroke-width="3.6"/>
  <path d="m275.23 373-1.7586 9.3207 3.3414 6.1552 3.5173 5.2759 8.0897 3.5172 17.586 2.4621 2.9897-2.2862 3.5172-4.9242 10.552-5.8035-2.8138-5.8035-3.6931-7.0345-4.3966-4.2207-3.6931-5.2759-8.2655-2.4621-6.3311 0.52759-4.0448-0.17586-7.738 3.6931-6.8586 7.0345z" stroke-width="3.6"/>
  <path d="m208.91 351.01 11.938-31.835 26.86-30.84 27.855-14.922 32.829-1.9897 44.767 3.9793 29.845 22.881 19.897 41.783 3.9793 32.829-0.99483 27.855-12.933 38.798-22.881 28.85-23.876 16.912-102.47-2.9845-25.866-39.793-7.9586-28.85-0.99483-28.85v-33.824z" stroke-width="3.6"/>
  <path d="m174.1 387.82 5.969-46.757 9.9483-48.747 36.809-38.798 41.783-21.886 42.778-3.9793 61.679 13.928 37.804 31.835 24.871 50.736 6.9638 43.772-1.9897 38.798-17.907 52.726-25.866 33.824-37.804 14.922-127.34 2.9845-36.809-51.731-17.907-31.835-2.9845-39.793z" stroke-width="3.6"/>
  <path d="m147.23 332.11-15.917 56.705 13.928 50.736 21.886 39.793 48.747 64.664 169.12 11.938 38.798-35.814 35.814-39.793 31.835-69.638-3.9793-48.747-16.912-55.71-25.866-61.679-54.716-38.798-77.597-24.871-55.71 5.969-56.705 19.897-45.762 57.7-6.9638 67.648z" stroke-width="3.6"/>
  <path d="m107.44 231.63-26.86 74.612 3.9793 87.545 4.9742 70.633 10.943 62.674 92.519 64.664 218.86 17.907 57.7-35.814 72.623-38.798 48.747-104.46-20.891-77.597-28.85-73.617-50.736-86.55-70.633-48.747-101.47-34.819-73.617 6.9638-90.529 13.928-46.757 101.47z" stroke-width="3.6"/>
  <path d="m53.721 186.86-21.886 107.44v99.483c0 5.969 9.9483 84.561 9.9483 84.561l17.907 82.571 106.45 81.576 282.53 36.809 98.488-23.876 76.602-69.638 34.819-147.23v-94.509l-28.85-102.47-82.571-104.46-94.509-51.731-126.34-29.845-96.498 2.9845-104.46 22.881-71.628 105.45z" stroke-width="3.6"/>
 </g>
</svg>
